PathFileType	4	(X/Y/Z)	Patient4_TMGait_0pt3_01_left_30.trc.trc
DataRate	CameraRate	NumFrames	NumMarkers	Units	OrigDataRate	OrigDataStartFrame	OrigNumFrames
50.000000000000	50.000000000000	4	33	mm	50.000000000000	89	       141
Frame#	Time	Sacral			L.Shoulder			Chest			R.Shoulder			Neck			R.ASIS			L.ASIS			R.Thigh.Superior			R.Thigh.Lateral			R.Thigh.Inferior			R.Patella			L.Thigh.Superior			L.Thigh.Lateral			L.Thigh.Inferior			L.Patella			L.Shank.Superior			L.Shank.Lateral			L.Shank.Inferior			R.Shank.Superior			R.Shank.Lateral			R.Shank.Inferior			R.Heel			R.Midfoot.Superior			R.Midfoot.Lateral			R.Toe			L.Heel			L.Midfoot.Lateral			L.Midfoot.Superior			L.Toe			L.Elbow			L.Wrist			R.Elbow			R.Wrist			
		X1	Y1	Z1	X2	Y2	Z2	X3	Y3	Z3	X4	Y4	Z4	X5	Y5	Z5	X6	Y6	Z6	X7	Y7	Z7	X8	Y8	Z8	X9	Y9	Z9	X10	Y10	Z10	X11	Y11	Z11	X12	Y12	Z12	X13	Y13	Z13	X14	Y14	Z14	X15	Y15	Z15	X16	Y16	Z16	X17	Y17	Z17	X18	Y18	Z18	X19	Y19	Z19	X20	Y20	Z20	X21	Y21	Z21	X22	Y22	Z22	X23	Y23	Z23	X24	Y24	Z24	X25	Y25	Z25	X26	Y26	Z26	X27	Y27	Z27	X28	Y28	Z28	X29	Y29	Z29	X30	Y30	Z30	X31	Y31	Z31	X32	Y32	Z32	X33	Y33	Z33	

89	58.490000000000	712.713823639265	1006.945733262073	475.102809106580	954.252785686692	1437.964803646073	365.535870794655	997.024887435152	1358.569056240593	547.080628254754	863.032196094063	1431.042574578059	687.072865503216	888.470665308893	1492.872648577307	513.474026013572	906.815607340861	941.307997799129	647.434735414588	958.189720780569	956.204689907332	378.468977601111	965.980450865691	748.293531954512	623.491707659046	883.367554179485	633.800182170602	668.590440286976	976.065409027025	588.176525552931	600.950154459551	982.093125573376	503.552474774263	608.015335410126	960.190525490191	725.411952416217	400.697597267668	860.521685588069	623.998632265078	322.459229228427	922.195760540561	531.067820251891	390.628766143056	906.279670280609	453.836027016362	389.314778982690	848.273198141848	398.094447088980	376.563152657297	721.346923795363	331.141343693369	319.361422843389	725.314245218014	203.081850593117	378.729990647459	963.271981153194	412.496072846352	613.160473336407	894.483884625954	302.471702104360	666.686279625435	955.112883550017	212.086759223400	612.042545596210	838.327001435009	42.568405976653	570.522634581424	1006.902943410925	98.667970144727	618.463440030195	917.211200289007	36.530931771125	650.796522996656	1124.808841433288	49.231537986513	652.029440941518	549.543986957373	93.077305841201	410.510428524873	619.719773489726	67.630800344556	332.117035445610	716.540388007105	106.807279438634	356.908226698641	824.410833619130	35.176606564731	330.568058062809	1083.390535171804	1133.896533287189	217.637910430016	1333.360473882435	1116.203104327140	282.562847472223	728.687339591087	1099.821198769065	760.356311994660	778.486712415556	845.744189375945	798.634783641327	
90	58.510000000000	713.473826017736	1007.604537263849	481.663871556153	953.325375665931	1438.717786687250	369.053186158209	998.101938942762	1359.748347424851	550.372810756837	865.278747232824	1432.293119115000	691.380554450949	888.936079439025	1493.896258005821	517.313356276190	908.800803464925	942.230698748884	652.588944688539	958.260997643856	956.963785416481	383.402115711966	965.949560409470	747.744078883624	628.400734547753	882.058471941651	633.870398142179	672.658649739915	974.216828243651	587.591032297265	604.734089588226	979.349300203768	503.017639114382	610.918998230162	964.656799511168	727.426669308100	405.519417712186	868.089186896015	624.092060127177	326.926245800878	932.556320230684	531.937495488677	394.732941591578	917.366252936484	453.287892507393	392.304108116733	857.017223154200	398.351917714689	379.450660982578	727.729159587461	336.370522571568	321.985806286350	727.852193414410	207.452550555026	379.442529097168	960.086033600548	412.151963069944	615.393559000060	890.829988620613	302.220525764259	668.406978139385	950.496317319143	211.745961548218	612.881728677942	832.632923085061	42.536481056213	570.724051957076	1001.261582238410	98.579887344873	618.749069562729	911.517925204460	36.480929565580	650.940178296331	1119.207955418153	48.877162258788	652.236030831292	548.433642447208	105.131134611715	410.237618449674	617.204578203705	76.057566251541	331.947483299028	715.739653156108	109.928092883718	356.731161959023	818.868719119950	34.127889291486	330.728783759635	1078.787008663901	1132.089282820662	221.975342624953	1329.130272250472	1108.922328568750	285.466186353379	736.592257801715	1099.926743888406	770.761265477902	795.399133146980	848.303361634048	811.739532480052	
91	58.530000000000	713.966537621316	1008.032668885527	488.128691170735	952.028115035069	1439.179947582570	372.131967466718	998.909623251149	1360.780268365441	553.226489926567	867.356418446390	1433.466443946218	695.290167016616	889.157852339869	1494.741924685255	520.717887962319	910.648745636430	942.976660191871	657.563219072839	958.007651319216	957.541483166617	388.100813429272	965.912252788623	747.167058324785	632.936791582805	880.939415082108	633.801524114420	676.522351630026	972.506432824885	586.957097495100	608.229896765177	976.801819104209	502.380344267509	613.590267951068	969.355890560626	729.592920816402	410.361580395662	876.353125416023	624.194813899844	331.377698282054	943.554566359449	533.066283281669	399.161979262945	929.230848920318	453.004054626340	395.660217514759	866.665472300784	398.746632371780	382.565257398193	735.237794939079	341.894568972369	324.653509359532	731.239419663422	212.325487004079	380.295187996655	957.062565423432	411.710227166686	617.425471899538	887.366673402581	301.914509592691	670.013945958171	945.974572731492	211.349566388658	613.583782037257	826.987576779468	42.525639179279	570.874835855153	995.642712787858	98.494645177199	618.982533682122	905.854337155849	36.457849621799	651.040618478561	1113.624555119983	48.488980514056	652.452889426806	548.331467803593	118.308399729347	409.954786860407	615.526943437487	85.596272322939	331.763817284583	715.591359862020	113.652298278682	356.717834700960	813.504560159352	33.006745218628	330.933878735933	1073.174110144656	1129.500947191554	226.327144836046	1323.756113382648	1099.606650950745	287.978242227668	744.838512673860	1100.073990222927	781.156326035178	812.501652498208	851.212936819625	824.890379961002	
92	58.550000000000	714.196591074970	1008.232538049821	494.482565519246	950.345559478856	1439.357407157489	374.788862610121	999.416677771467	1361.654956210058	555.646372349179	869.241124025463	1434.538707982523	698.812368802582	889.114821108094	1495.399666685994	523.710191739017	912.393769946413	943.545520642744	662.296000116052	957.428307996854	957.962677181034	392.499023072838	966.001641246534	746.604834570845	637.018846463603	880.192073229797	633.607235408133	680.134089659603	971.116059460483	586.306886954370	611.374495510598	974.665029063789	501.626130985938	615.990802005056	974.211086964383	731.932599145901	415.230880035816	885.206290593412	624.379909081172	335.841347849209	954.993279977809	534.522947523546	403.988487085206	941.690155826722	453.062954415963	399.464817482697	877.063595906056	399.338266236464	385.964230776746	743.759475903952	347.684578920220	327.412070239014	735.450646256626	217.680332705077	381.348371495017	954.349036101907	411.150610466502	619.223998164728	884.185312475323	301.568877951935	671.493273242117	941.578911333736	210.879804293535	614.129445930349	821.326816917890	42.540873861557	570.978130763978	990.000277255181	98.394160752782	619.139371995676	900.160600580252	36.463027449565	651.101570920539	1108.006605195491	48.049675317959	652.661236350694	549.315841765182	132.385438411084	409.726342531318	614.806905570921	96.127392583742	331.620216697617	716.149615909279	118.011705028086	356.911922608813	808.483064941707	31.925396788255	331.177694924064	1066.564673727795	1126.165608325427	230.768903174612	1317.053959446154	1088.079725391282	290.128303818921	753.434893180769	1100.203826565741	791.374123798975	829.749813577662	854.402891461640	837.939881178154	
